<?xml version="1.0" encoding="UTF-8" standalone="no"?>
<svg
   xmlns:dc="http://purl.org/dc/elements/1.1/"
   xmlns:cc="http://creativecommons.org/ns#"
   xmlns:rdf="http://www.w3.org/1999/02/22-rdf-syntax-ns#"
   xmlns:svg="http://www.w3.org/2000/svg"
   xmlns="http://www.w3.org/2000/svg"
   xmlns:sodipodi="http://sodipodi.sourceforge.net/DTD/sodipodi-0.dtd"
   xmlns:inkscape="http://www.inkscape.org/namespaces/inkscape"
   sodipodi:docname="sun-lightcloud.svg"
   inkscape:version="1.0 (4035a4fb49, 2020-05-01)"
   id="svg8"
   version="1.1"
   viewBox="0 0 1082.847 1219.2"
   height="4608"
   width="4092.6501">
  <title
     id="title1749">Sun with light Cloud</title>
  <defs
     id="defs2">
    <inkscape:path-effect
       lpeversion="1"
       is_visible="true"
       id="path-effect866"
       effect="spiro" />
  </defs>
  <sodipodi:namedview
     inkscape:window-maximized="0"
     inkscape:window-y="0"
     inkscape:window-x="0"
     inkscape:window-height="728"
     inkscape:window-width="1350"
     showguides="true"
     inkscape:lockguides="false"
     units="px"
     showgrid="false"
     inkscape:document-rotation="0"
     inkscape:current-layer="layer1"
     inkscape:document-units="mm"
     inkscape:cy="2304"
     inkscape:cx="2046.3251"
     inkscape:zoom="0.11675347"
     inkscape:pageshadow="2"
     inkscape:pageopacity="0.0"
     borderopacity="1.0"
     bordercolor="#666666"
     pagecolor="#ffffff"
     id="base" />
  <metadata
     id="metadata5">
    <rdf:RDF>
      <cc:Work
         rdf:about="">
        <dc:format>image/svg+xml</dc:format>
        <dc:type
           rdf:resource="http://purl.org/dc/dcmitype/StillImage" />
        <dc:title>Sun with light Cloud</dc:title>
      </cc:Work>
    </rdf:RDF>
  </metadata>
  <g
     transform="translate(129.41717,131.53572)"
     id="layer1"
     inkscape:groupmode="layer"
     inkscape:label="Layer 1">
    <g
       transform="matrix(15.706443,0,0,16.792384,-285.81145,-540.95725)"
       id="g1745">
      <path
         d="M 76.351189,59.342262 A 28.726189,28.348215 0 0 1 47.625,87.690477 28.726189,28.348215 0 0 1 18.898811,59.342262 28.726189,28.348215 0 0 1 47.625,30.994047 28.726189,28.348215 0 0 1 76.351189,59.342262"
         style="fill:#ffcc00;stroke-width:0.264583"
         id="path862" />
      <g
         id="g1724"
         transform="matrix(0.38991811,0,0,0.4034946,5.3476578,18.99495)"
         style="fill:#f2f2f2;fill-opacity:0.875502">
        <path
           id="path864"
           d="m 41.137099,160.16492 c -6.195988,-0.4619 -12.200809,-3.16611 -16.653256,-7.49962 -3.482201,-3.38918 -6.009723,-7.73814 -7.28937,-12.42587 -1.279646,-4.68772 -1.314801,-9.70151 -0.160096,-14.42157 2.30941,-9.44012 9.483724,-17.452 18.44951,-21.20218 8.965787,-3.75018 19.497557,-3.30007 28.313447,0.79007 8.815891,4.09014 15.864775,11.67069 19.738622,20.58374 0.109329,0.25155 0.216265,0.50414 0.320788,0.75772 4.751005,-2.61187 10.711172,-2.90161 15.693113,-0.76288 4.981943,2.13873 8.877063,6.65931 10.255843,11.90267 1.4488,5.50964 0.0678,11.68545 -3.58982,16.0532 -3.65759,4.36774 -9.494921,6.81182 -15.173359,6.35305 l -48.37922,-0.0123 -1.526202,-0.11606 z"
           style="fill:#f2f2f2;fill-opacity:0.875502;stroke:#000000;stroke-width:0;stroke-linecap:butt;stroke-linejoin:miter;stroke-miterlimit:4;stroke-dasharray:none;stroke-opacity:1" />
      </g>
    </g>
  </g>
</svg>
